<?xml version="1.0" encoding="utf-8"?>
<!-- Generator: Adobe Illustrator 24.0.2, SVG Export Plug-In . SVG Version: 6.00 Build 0)  -->
<svg version="1.1" xmlns="http://www.w3.org/2000/svg" xmlns:xlink="http://www.w3.org/1999/xlink" width="97px" height="144px"
	 viewBox="0 0 974 974" style="enable-background:new 0 0 974 974;" xml:space="preserve">
<style type="text/css">
	.st0{stroke:#000000;stroke-miterlimit:10;}
	.st1{fill:#FFFFFF;stroke:#FFFFFF;stroke-width:8;stroke-miterlimit:10;}
	.st2{fill:#FFFFFF;stroke:#000000;stroke-miterlimit:10;}
	.st3{fill:#D1CFCF;}
	.st4{fill:url(#SVGID_1_);}
	.st5{fill:url(#SVGID_2_);}
</style>
<g id="Capa_2">
	<path class="st0" d="M300.5,404.5"/>
	<path class="st0" d="M193.5,298.452"/>
	<path class="st0" d="M834.865,973.5h-695.73C62.569,973.5,0.5,911.431,0.5,834.865v-695.73C0.5,62.569,62.569,0.5,139.135,0.5
		h695.73C911.431,0.5,973.5,62.569,973.5,139.135v695.73C973.5,911.431,911.431,973.5,834.865,973.5z"/>
</g>
<g id="Capa_3">
	<polygon class="st1" points="103,343 286.709,446.899 101,561.288 101,679.5 472.104,446.899 103,222.5 	"/>
	<path class="st2" d="M398.5,125.5"/>
	<rect x="457" y="677" class="st1" width="342" height="82"/>
</g>
<g id="Capa_4">
	<polygon class="st3" points="96,558 279,447 480,447 97,686 	"/>
	<linearGradient id="SVGID_1_" gradientUnits="userSpaceOnUse" x1="188" y1="466" x2="324.5" y2="602.5">
		<stop  offset="0.3518" style="stop-color:#E6E6E6"/>
		<stop  offset="1" style="stop-color:#000000;stop-opacity:0.1"/>
	</linearGradient>
	<polygon class="st4" points="96,558 279,447 480,447 97,686 	"/>
	<linearGradient id="SVGID_2_" gradientUnits="userSpaceOnUse" x1="803" y1="751.5" x2="453" y2="751.5">
		<stop  offset="0" style="stop-color:#E6E6E6"/>
		<stop  offset="1" style="stop-color:#000000;stop-opacity:0.2"/>
	</linearGradient>
	<rect x="453" y="740" class="st5" width="350" height="23"/>
</g>
</svg>
